<mxfile host="www.draw.io" modified="2019-11-27T07:17:39.005Z" agent="Mozilla/5.0 (Windows NT 10.0; Win64; x64) AppleWebKit/537.36 (KHTML, like Gecko) Chrome/78.0.3904.108 Safari/537.36" etag="xkO_Ts9fVeTSTeUbqfpJ" version="12.3.1" type="github" pages="1">
  <diagram id="jhfp2IN0F8WhAykr2nvw" name="Page-1">
    <mxGraphModel dx="1024" dy="1663" grid="1" gridSize="10" guides="1" tooltips="1" connect="1" arrows="1" fold="1" page="1" pageScale="1" pageWidth="827" pageHeight="1169" math="0" shadow="0">
      <root>
        <mxCell id="0"/>
        <mxCell id="1" parent="0"/>
        <mxCell id="ZiYapEiAtEIWgbghpOQc-3" style="edgeStyle=orthogonalEdgeStyle;rounded=0;orthogonalLoop=1;jettySize=auto;html=1;entryX=0;entryY=0.5;entryDx=0;entryDy=0;" parent="1" source="ZiYapEiAtEIWgbghpOQc-1" target="ZiYapEiAtEIWgbghpOQc-2" edge="1">
          <mxGeometry relative="1" as="geometry"/>
        </mxCell>
        <mxCell id="ZiYapEiAtEIWgbghpOQc-1" value="клиент" style="whiteSpace=wrap;html=1;aspect=fixed;" parent="1" vertex="1">
          <mxGeometry y="45" width="50" height="50" as="geometry"/>
        </mxCell>
        <mxCell id="ZiYapEiAtEIWgbghpOQc-7" style="edgeStyle=orthogonalEdgeStyle;rounded=0;orthogonalLoop=1;jettySize=auto;html=1;entryX=0;entryY=0.5;entryDx=0;entryDy=0;" parent="1" source="ZiYapEiAtEIWgbghpOQc-2" target="ZiYapEiAtEIWgbghpOQc-6" edge="1">
          <mxGeometry relative="1" as="geometry"/>
        </mxCell>
        <mxCell id="ZiYapEiAtEIWgbghpOQc-2" value="описал тип мероприятия и свои пожелания" style="whiteSpace=wrap;html=1;aspect=fixed;" parent="1" vertex="1">
          <mxGeometry x="200" y="20" width="100" height="100" as="geometry"/>
        </mxCell>
        <mxCell id="ZiYapEiAtEIWgbghpOQc-4" value="созвонился с &lt;br&gt;администратором" style="text;html=1;align=center;verticalAlign=middle;resizable=0;points=[];;autosize=1;" parent="1" vertex="1">
          <mxGeometry x="60" y="30" width="120" height="30" as="geometry"/>
        </mxCell>
        <mxCell id="ZiYapEiAtEIWgbghpOQc-11" style="edgeStyle=orthogonalEdgeStyle;rounded=0;orthogonalLoop=1;jettySize=auto;html=1;entryX=0;entryY=0.5;entryDx=0;entryDy=0;" parent="1" source="ZiYapEiAtEIWgbghpOQc-6" target="ZiYapEiAtEIWgbghpOQc-13" edge="1">
          <mxGeometry relative="1" as="geometry">
            <mxPoint x="570" y="70" as="targetPoint"/>
          </mxGeometry>
        </mxCell>
        <mxCell id="ZiYapEiAtEIWgbghpOQc-6" value="осмотр помещения и составления списка оборудования" style="whiteSpace=wrap;html=1;aspect=fixed;" parent="1" vertex="1">
          <mxGeometry x="420" y="20" width="100" height="100" as="geometry"/>
        </mxCell>
        <mxCell id="ZiYapEiAtEIWgbghpOQc-9" style="edgeStyle=orthogonalEdgeStyle;rounded=0;orthogonalLoop=1;jettySize=auto;html=1;" parent="1" source="ZiYapEiAtEIWgbghpOQc-8" target="ZiYapEiAtEIWgbghpOQc-6" edge="1">
          <mxGeometry relative="1" as="geometry"/>
        </mxCell>
        <mxCell id="ZiYapEiAtEIWgbghpOQc-12" style="edgeStyle=orthogonalEdgeStyle;rounded=0;orthogonalLoop=1;jettySize=auto;html=1;entryX=0;entryY=0.75;entryDx=0;entryDy=0;" parent="1" source="ZiYapEiAtEIWgbghpOQc-8" target="ZiYapEiAtEIWgbghpOQc-10" edge="1">
          <mxGeometry relative="1" as="geometry">
            <Array as="points">
              <mxPoint x="670" y="170"/>
              <mxPoint x="670" y="90"/>
            </Array>
          </mxGeometry>
        </mxCell>
        <mxCell id="yZYrPNoqcHmIv75UZtUb-9" style="edgeStyle=orthogonalEdgeStyle;rounded=0;orthogonalLoop=1;jettySize=auto;html=1;entryX=0;entryY=0.5;entryDx=0;entryDy=0;" parent="1" source="ZiYapEiAtEIWgbghpOQc-8" target="yZYrPNoqcHmIv75UZtUb-5" edge="1">
          <mxGeometry relative="1" as="geometry">
            <Array as="points">
              <mxPoint x="555" y="480"/>
            </Array>
          </mxGeometry>
        </mxCell>
        <mxCell id="yZYrPNoqcHmIv75UZtUb-11" style="edgeStyle=orthogonalEdgeStyle;rounded=0;orthogonalLoop=1;jettySize=auto;html=1;entryX=0.016;entryY=0.39;entryDx=0;entryDy=0;entryPerimeter=0;" parent="1" source="ZiYapEiAtEIWgbghpOQc-8" target="ZiYapEiAtEIWgbghpOQc-23" edge="1">
          <mxGeometry relative="1" as="geometry"/>
        </mxCell>
        <mxCell id="ZiYapEiAtEIWgbghpOQc-8" value="мастера" style="whiteSpace=wrap;html=1;aspect=fixed;" parent="1" vertex="1">
          <mxGeometry x="530" y="160" width="50" height="50" as="geometry"/>
        </mxCell>
        <mxCell id="ZiYapEiAtEIWgbghpOQc-24" style="edgeStyle=orthogonalEdgeStyle;rounded=0;orthogonalLoop=1;jettySize=auto;html=1;entryX=0.5;entryY=0;entryDx=0;entryDy=0;" parent="1" source="ZiYapEiAtEIWgbghpOQc-10" target="ZiYapEiAtEIWgbghpOQc-23" edge="1">
          <mxGeometry relative="1" as="geometry"/>
        </mxCell>
        <mxCell id="ZiYapEiAtEIWgbghpOQc-10" value="составление&lt;br&gt;договора" style="whiteSpace=wrap;html=1;aspect=fixed;" parent="1" vertex="1">
          <mxGeometry x="730" y="30" width="80" height="80" as="geometry"/>
        </mxCell>
        <mxCell id="ZiYapEiAtEIWgbghpOQc-14" style="edgeStyle=orthogonalEdgeStyle;rounded=0;orthogonalLoop=1;jettySize=auto;html=1;" parent="1" source="ZiYapEiAtEIWgbghpOQc-13" target="ZiYapEiAtEIWgbghpOQc-10" edge="1">
          <mxGeometry relative="1" as="geometry"/>
        </mxCell>
        <mxCell id="ZiYapEiAtEIWgbghpOQc-16" style="edgeStyle=orthogonalEdgeStyle;rounded=0;orthogonalLoop=1;jettySize=auto;html=1;entryX=0.5;entryY=0;entryDx=0;entryDy=0;" parent="1" source="ZiYapEiAtEIWgbghpOQc-13" target="ZiYapEiAtEIWgbghpOQc-6" edge="1">
          <mxGeometry relative="1" as="geometry">
            <Array as="points">
              <mxPoint x="620"/>
              <mxPoint x="470"/>
            </Array>
          </mxGeometry>
        </mxCell>
        <mxCell id="ZiYapEiAtEIWgbghpOQc-13" value="согласие клиента" style="rhombus;whiteSpace=wrap;html=1;" parent="1" vertex="1">
          <mxGeometry x="580" y="30" width="80" height="80" as="geometry"/>
        </mxCell>
        <mxCell id="ZiYapEiAtEIWgbghpOQc-17" value="да" style="text;html=1;align=center;verticalAlign=middle;resizable=0;points=[];;autosize=1;" parent="1" vertex="1">
          <mxGeometry x="680" y="50" width="30" height="20" as="geometry"/>
        </mxCell>
        <mxCell id="ZiYapEiAtEIWgbghpOQc-20" value="нет" style="text;html=1;align=center;verticalAlign=middle;resizable=0;points=[];;autosize=1;" parent="1" vertex="1">
          <mxGeometry x="590" width="30" height="20" as="geometry"/>
        </mxCell>
        <mxCell id="yZYrPNoqcHmIv75UZtUb-2" style="edgeStyle=orthogonalEdgeStyle;rounded=0;orthogonalLoop=1;jettySize=auto;html=1;entryX=0.5;entryY=0;entryDx=0;entryDy=0;" parent="1" source="ZiYapEiAtEIWgbghpOQc-23" target="yZYrPNoqcHmIv75UZtUb-1" edge="1">
          <mxGeometry relative="1" as="geometry"/>
        </mxCell>
        <mxCell id="ZiYapEiAtEIWgbghpOQc-23" value="установка оборудования" style="whiteSpace=wrap;html=1;aspect=fixed;" parent="1" vertex="1">
          <mxGeometry x="725" y="150" width="90" height="90" as="geometry"/>
        </mxCell>
        <mxCell id="ZiYapEiAtEIWgbghpOQc-26" value="получение прибыли" style="ellipse;whiteSpace=wrap;html=1;aspect=fixed;" parent="1" vertex="1">
          <mxGeometry x="730" y="580" width="80" height="80" as="geometry"/>
        </mxCell>
        <mxCell id="yZYrPNoqcHmIv75UZtUb-6" style="edgeStyle=orthogonalEdgeStyle;rounded=0;orthogonalLoop=1;jettySize=auto;html=1;entryX=0.5;entryY=0;entryDx=0;entryDy=0;" parent="1" source="yZYrPNoqcHmIv75UZtUb-1" target="yZYrPNoqcHmIv75UZtUb-5" edge="1">
          <mxGeometry relative="1" as="geometry"/>
        </mxCell>
        <mxCell id="yZYrPNoqcHmIv75UZtUb-1" value="создание шоу" style="whiteSpace=wrap;html=1;aspect=fixed;" parent="1" vertex="1">
          <mxGeometry x="730" y="300" width="80" height="80" as="geometry"/>
        </mxCell>
        <mxCell id="yZYrPNoqcHmIv75UZtUb-4" style="edgeStyle=orthogonalEdgeStyle;rounded=0;orthogonalLoop=1;jettySize=auto;html=1;entryX=0;entryY=0.5;entryDx=0;entryDy=0;" parent="1" source="yZYrPNoqcHmIv75UZtUb-3" target="yZYrPNoqcHmIv75UZtUb-1" edge="1">
          <mxGeometry relative="1" as="geometry"/>
        </mxCell>
        <mxCell id="yZYrPNoqcHmIv75UZtUb-8" style="edgeStyle=orthogonalEdgeStyle;rounded=0;orthogonalLoop=1;jettySize=auto;html=1;entryX=0;entryY=0.25;entryDx=0;entryDy=0;" parent="1" source="yZYrPNoqcHmIv75UZtUb-3" target="yZYrPNoqcHmIv75UZtUb-5" edge="1">
          <mxGeometry relative="1" as="geometry">
            <Array as="points">
              <mxPoint x="605" y="460"/>
            </Array>
          </mxGeometry>
        </mxCell>
        <mxCell id="yZYrPNoqcHmIv75UZtUb-3" value="мастер видео-выпуска" style="whiteSpace=wrap;html=1;aspect=fixed;" parent="1" vertex="1">
          <mxGeometry x="565" y="300" width="80" height="80" as="geometry"/>
        </mxCell>
        <mxCell id="yZYrPNoqcHmIv75UZtUb-7" style="edgeStyle=orthogonalEdgeStyle;rounded=0;orthogonalLoop=1;jettySize=auto;html=1;entryX=0.5;entryY=0;entryDx=0;entryDy=0;" parent="1" source="yZYrPNoqcHmIv75UZtUb-5" target="ZiYapEiAtEIWgbghpOQc-26" edge="1">
          <mxGeometry relative="1" as="geometry"/>
        </mxCell>
        <mxCell id="yZYrPNoqcHmIv75UZtUb-5" value="ведение мероприятия&amp;nbsp;" style="whiteSpace=wrap;html=1;aspect=fixed;" parent="1" vertex="1">
          <mxGeometry x="730" y="440" width="80" height="80" as="geometry"/>
        </mxCell>
      </root>
    </mxGraphModel>
  </diagram>
</mxfile>
